<?xml version="1.0" standalone="no"?>
<!DOCTYPE svg PUBLIC "-//W3C//DTD SVG 20010904//EN"
 "http://www.w3.org/TR/2001/REC-SVG-20010904/DTD/svg10.dtd">
<svg version="1.0" xmlns="http://www.w3.org/2000/svg"
 width="300.000000pt" height="300.000000pt" viewBox="0 0 300.000000 300.000000"
 preserveAspectRatio="xMidYMid meet">
<metadata>
Created by potrace 1.11, written by Peter Selinger 2001-2013
</metadata>
<g transform="translate(0.000000,300.000000) scale(0.100000,-0.100000)"
fill="#000000" stroke="none">
<path d="M22 1525 l0 -385 326 2 c350 3 330 0 323 47 0 4 -132 8 -291 8 -160
0 -293 3 -296 6 -5 5 -9 523 -5 630 1 16 75 17 1416 17 1125 0 1415 -3 1416
-12 4 -72 0 -631 -5 -635 -3 -3 -136 -6 -296 -6 l-290 0 0 -28 0 -29 325 0
325 0 0 385 0 385 -1473 0 -1474 0 -1 -385z"/>
<path d="M210 1700 c-4 -3 -8 -80 -7 -172 l0 -166 27 -4 c45 -7 50 0 50 68 0
57 2 64 20 64 13 0 33 -20 60 -64 41 -64 63 -78 112 -68 15 3 13 11 -18 60
-20 31 -45 67 -57 80 -12 13 -15 22 -8 22 25 0 61 52 61 89 -1 68 -39 92 -151
94 -44 1 -84 0 -89 -3z m153 -82 c17 -26 -16 -68 -53 -68 -29 0 -30 2 -30 43
0 24 2 46 5 49 10 10 68 -7 78 -24z"/>
<path d="M567 1702 c-16 -3 -17 -20 -15 -174 l3 -171 58 1 c159 2 148 0 145
25 -6 38 -15 43 -72 40 -59 -2 -67 5 -58 55 4 20 10 22 59 22 l54 0 -3 32 c-3
32 -4 33 -53 32 -57 0 -63 5 -57 47 4 27 8 30 36 29 79 -5 86 -2 86 30 0 17
-6 30 -12 31 -38 3 -157 4 -171 1z"/>
<path d="M852 1702 c-17 -5 -17 -239 0 -244 6 -2 24 -2 40 0 l28 4 0 119 c0
66 -3 119 -7 120 -5 0 -17 2 -28 3 -12 1 -26 1 -33 -2z"/>
<path d="M963 1701 c-5 -3 -9 -17 -9 -31 0 -20 7 -27 35 -36 69 -21 94 -97 54
-164 -21 -36 -59 -49 -138 -47 l-60 1 -3 -32 c-3 -30 -1 -32 30 -33 146 -4
207 16 247 78 50 78 23 213 -48 243 -43 17 -98 28 -108 21z"/>
<path d="M1283 1699 c-63 -18 -93 -96 -57 -147 8 -12 42 -36 75 -52 58 -30 76
-58 48 -76 -21 -13 -88 -7 -114 10 l-25 16 0 -39 c0 -38 2 -41 40 -51 78 -21
170 6 186 53 23 66 3 106 -70 142 -30 15 -60 33 -66 40 -14 16 -2 45 19 46 36
4 57 2 84 -4 25 -7 27 -6 27 27 0 30 -4 34 -31 40 -41 8 -76 6 -116 -5z"/>
<path d="M1499 1700 c0 -3 -2 -15 -5 -27 -5 -27 2 -31 54 -34 30 -2 42 -7 43
-18 1 -9 1 -71 1 -138 l0 -121 27 -4 c50 -7 51 -5 51 143 0 128 2 140 18 138
9 -1 32 -1 50 0 29 1 32 4 32 34 l0 32 -135 0 c-74 0 -135 -2 -136 -5z"/>
<path d="M1936 1700 c-56 -18 -100 -74 -109 -143 -16 -120 66 -213 178 -202
103 10 160 81 153 192 -4 66 -21 100 -69 135 -29 22 -111 31 -153 18z m91 -66
c31 -8 52 -60 49 -118 -5 -88 -79 -124 -137 -67 -24 24 -29 38 -29 76 0 89 43
129 117 109z"/>
<path d="M2250 1702 c-6 -2 -10 -65 -10 -172 0 -183 0 -182 58 -172 20 4 22
10 22 68 0 45 4 64 13 64 21 0 33 -13 71 -72 36 -56 38 -58 81 -58 l45 0 -36
58 c-20 31 -46 66 -58 76 -16 14 -18 20 -7 24 42 15 71 76 55 120 -17 46 -52
63 -142 65 -45 1 -86 1 -92 -1z m150 -78 c24 -23 -6 -68 -48 -72 -32 -3 -32
-3 -32 41 0 24 3 46 6 50 9 9 58 -3 74 -19z"/>
<path d="M2594 1701 c-2 -2 -4 -80 -4 -173 l0 -168 45 -1 c168 -3 165 -4 165
34 l0 32 -65 -2 -65 -1 0 39 0 39 54 0 c57 0 66 7 58 45 -3 19 -10 21 -58 19
l-54 -2 0 39 c0 26 4 39 13 38 6 -1 33 -1 60 0 46 1 47 2 47 34 l0 32 -96 0
c-53 0 -98 -2 -100 -4z"/>
<path d="M1995 1240 c-3 -5 -2 -10 4 -10 5 0 13 5 16 10 3 6 2 10 -4 10 -5 0
-13 -4 -16 -10z"/>
<path d="M945 1225 c-3 -8 -7 -22 -10 -30 -2 -8 -14 -15 -26 -15 -18 0 -20 4
-15 25 4 14 2 25 -4 25 -5 0 -10 -11 -10 -25 0 -15 -7 -28 -17 -32 -10 -4 -25
-16 -34 -27 -18 -22 -43 -13 -35 12 8 24 -9 46 -28 39 -21 -8 -48 -69 -36 -80
4 -5 19 -6 31 -1 13 4 33 8 45 8 12 1 29 9 38 19 25 24 29 21 23 -13 -4 -17
-2 -30 3 -30 6 0 10 14 10 30 0 17 3 30 8 30 4 0 17 3 30 6 21 6 22 4 19 -30
-2 -20 0 -36 4 -36 5 0 9 4 9 8 0 5 11 21 24 36 l23 28 7 -26 c7 -30 27 -33
51 -10 15 15 17 15 35 -1 21 -19 55 -13 65 12 5 14 3 14 -15 -2 -31 -28 -44
-8 -32 49 7 35 7 46 -2 43 -11 -4 -12 -7 -16 -59 -1 -18 -4 -27 -7 -21 -4 10
-10 10 -26 -2 -29 -20 -34 -19 -41 10 -8 30 -21 32 -38 5 -20 -31 -26 -24 -22
25 3 45 -2 59 -11 30z m-175 -84 c-12 -23 -30 -28 -30 -8 0 7 8 24 17 37 15
21 18 22 21 8 2 -9 -2 -26 -8 -37z"/>
<path d="M1730 1215 c0 -14 1 -27 3 -29 3 -5 -56 -52 -77 -60 -24 -8 -38 11
-25 36 6 11 15 15 27 11 15 -6 15 -5 2 11 -13 17 -15 17 -33 -5 -44 -54 6 -90
61 -44 18 15 36 24 42 20 6 -4 10 6 10 24 0 16 3 36 6 45 3 9 1 16 -5 16 -6 0
-11 -11 -11 -25z"/>
<path d="M1300 1215 c0 -19 -76 -95 -95 -95 -23 0 -27 18 -5 30 21 11 27 44
10 55 -14 8 -42 -40 -38 -67 4 -33 39 -34 76 -4 38 33 39 32 34 -4 -3 -19 0
-30 7 -30 7 0 10 4 7 9 -11 17 11 57 32 58 16 1 22 -5 24 -25 2 -18 10 -28 24
-30 22 -3 74 32 74 50 0 6 -8 2 -17 -9 -22 -24 -59 -38 -68 -24 -3 6 3 16 15
23 11 7 20 21 20 32 0 14 -5 17 -22 11 -13 -4 -35 -9 -51 -12 -26 -5 -27 -4
-17 21 6 17 6 26 0 26 -6 0 -10 -7 -10 -15z m-98 -47 c-7 -7 -12 -8 -12 -2 0
14 12 26 19 19 2 -3 -1 -11 -7 -17z m180 0 c-7 -7 -12 -8 -12 -2 0 14 12 26
19 19 2 -3 -1 -11 -7 -17z"/>
<path d="M2164 1166 c-46 -45 -67 -55 -78 -38 -10 16 6 53 20 48 8 -3 14 -1
14 4 0 16 -18 20 -32 7 -32 -31 -71 -56 -79 -51 -5 3 -9 20 -10 37 0 28 -1 29
-9 11 -12 -30 -7 -56 14 -68 14 -9 22 -6 41 16 23 27 24 27 27 5 4 -31 39 -33
70 -4 l26 25 6 -24 c4 -15 14 -24 25 -24 20 0 71 36 71 50 0 5 -11 -2 -25 -15
-22 -23 -55 -34 -55 -19 0 3 9 18 19 33 12 16 16 32 12 40 -6 10 -21 1 -57
-33z m37 -3 c-8 -15 -10 -15 -11 -2 0 17 10 32 18 25 2 -3 -1 -13 -7 -23z"/>
<path d="M1467 1193 c-11 -11 -8 -51 4 -59 8 -4 4 -13 -12 -25 -13 -10 -18
-19 -12 -19 15 0 93 68 93 81 0 4 -12 -3 -27 -17 -23 -21 -28 -23 -35 -10 -5
9 -4 24 2 36 10 19 1 28 -13 13z"/>
<path d="M1870 1176 c-14 -13 -35 -27 -47 -31 -20 -5 -23 -3 -23 19 0 33 -14
33 -42 1 -11 -13 -25 -22 -30 -19 -4 3 -8 -7 -8 -23 l1 -28 19 25 c45 57 45
57 48 27 4 -31 31 -37 52 -12 11 14 14 13 25 -2 11 -15 17 -15 39 -5 14 6 26
18 26 27 0 9 9 15 25 15 31 0 33 15 3 16 -13 1 -32 5 -43 8 -14 5 -28 -1 -45
-18z m50 -10 c0 -16 -28 -42 -36 -33 -3 3 -3 15 1 26 7 23 35 29 35 7z"/>
</g>
</svg>
